<svg xmlns="http://www.w3.org/2000/svg" width="20" height="20" viewBox="0 0 20 20">
  <g id="ico" transform="translate(-1094 -160)">
    <rect id="bg" width="20" height="20" transform="translate(1094 160)" fill="rgba(255,71,71,0)"/>
    <path id="Path_475" data-name="Path 475" d="M23,17.91v3.929a1.112,1.112,0,0,1-1.033,1.109c-.486.033-.882.051-1.189.051A17.776,17.776,0,0,1,3,5.222q0-.46.051-1.189A1.112,1.112,0,0,1,4.16,3H8.089a.556.556,0,0,1,.553.5c.026.256.049.459.071.613a15.451,15.451,0,0,0,1.342,4.445.506.506,0,0,1-.163.63L7.494,10.9a14.5,14.5,0,0,0,7.6,7.6l1.711-2.393a.513.513,0,0,1,.637-.166,15.448,15.448,0,0,0,4.444,1.339c.154.022.358.047.611.071a.556.556,0,0,1,.5.553Z" transform="translate(1091 157.001)" fill="#fff"/>
  </g>
</svg>
