<svg xmlns="http://www.w3.org/2000/svg" width="20" height="20" viewBox="0 0 20 20">
  <g id="ico" transform="translate(-1094 -160)">
    <rect id="bg" width="20" height="20" transform="translate(1094 160)" fill="rgba(255,71,71,0)"/>
    <path id="Path_628" data-name="Path 628" d="M1251.913,485.1l-7.47-1.66-7.47,1.66a.908.908,0,0,0-.712.887v9.08a5.455,5.455,0,0,0,2.429,4.537l5.753,3.835,5.753-3.835a5.455,5.455,0,0,0,2.429-4.538v-9.079A.909.909,0,0,0,1251.913,485.1Zm-7.786.249a4.122,4.122,0,0,0,.524,1.143,4.376,4.376,0,0,0,.588.694c1.254,1.135,2.462,1.74,2.5,3.105a2.644,2.644,0,0,1-.3,1.357c-.471-.858-1.043-1.11-2.176-1.928a4.051,4.051,0,0,1-1.465-1.784A2.708,2.708,0,0,1,1244.126,485.35Zm3.117,10.459a2.539,2.539,0,0,1-1.941.627,2.006,2.006,0,0,0,.779-2.031,1.728,1.728,0,0,0-.547-1,1.889,1.889,0,0,1-1.094,1.334,2.04,2.04,0,0,1-1.666,0,2.339,2.339,0,0,0,.661,1.222,2.62,2.62,0,0,0,.96.6,7.3,7.3,0,0,1,1.567.717,2.608,2.608,0,0,1,1.082,2.193,3.407,3.407,0,0,0-2.28-1.3,6.614,6.614,0,0,1-2.88-1.245,3.363,3.363,0,0,1-1.071-1.866,3.067,3.067,0,0,1,.422-2.2,3.615,3.615,0,0,1,.71-.805,1.054,1.054,0,0,0,.586,1.186.975.975,0,0,0,1.318-.492.833.833,0,0,0-.251-.835,3.187,3.187,0,0,1-.875-2.035,3.234,3.234,0,0,1,.22-1.307,3.108,3.108,0,0,1,.551-.908,3.986,3.986,0,0,0,1.037,2.394,4.879,4.879,0,0,0,1.216.939c1.847,1.031,2.124,1.674,2.285,2.335a2.8,2.8,0,0,1,.065.8A2.435,2.435,0,0,1,1247.244,495.809Z" transform="translate(-140.443 -323.441)" fill="#1b1464"/>
  </g>
</svg>
